# xmcd CD database file
#
# Track frame offsets:
#	150
#	22455
#	39337
#	59047
#	74060
#	91270
#	109302
#	133515
#	146060
#	167487
#	184057
#	202830
#	220942
#	237230
#	253680
#
# Disc length: 3624 seconds
#
# Revision: 0
# Processed by: cddbd v1.5.2PL0 Copyright (c) Steve Scherf et al.
# Submitted via: CDex 1.51
#
DISCID=e60e260f
DTITLE=David Plüss - Best of Emotions
DYEAR=2001
DGENRE=Jazz
TTITLE0=Daydream
TTITLE1=On the Beach
TTITLE2=Chanson Pour Toi
TTITLE3=Emotions of Peace
TTITLE4=Slower Power
TTITLE5=What Now
TTITLE6=Sunrise
TTITLE7=Roses for You
TTITLE8=For My Child
TTITLE9=Petit Enfant
TTITLE10=Blue September
TTITLE11=Anticipation
TTITLE12=Inspiration
TTITLE13=Emotions of Love
TTITLE14=Reggae Time
EXTD=YEAR: 2001
EXTT0=
EXTT1=
EXTT2=
EXTT3=
EXTT4=
EXTT5=
EXTT6=
EXTT7=
EXTT8=
EXTT9=
EXTT10=
EXTT11=
EXTT12=
EXTT13=
EXTT14=
PLAYORDER=
